PathFileType	4	(X/Y/Z)	C:/Users/beibeiliu/ov580/test_trc\sequence.2_training_dense_left.trc
DataRate	CameraRate	NumFrames	NumMarkers	Units	OrigDataRate	OrigDataStartFrame	OrigNumFrames
120	120	7	19	mm	120	118	313
Frame#	Time	ThumbCMC			ThumbMCP			ThumbIP			ThumbTip			IndexMCP			IndexPIP			IndexTip			MiddleMCP			MiddlePIP			MiddleTip			RingMCP			RingPIP			RingTip			PinkyMCP			PinkyPIP			PinkyTip			BackHand1			BackHand2			BackHand3	
		X0	Y0	Z0	X1	Y1	Z1	X2	Y2	Z2	X3	Y3	Z3	X4	Y4	Z4	X5	Y5	Z5	X6	Y6	Z6	X7	Y7	Z7	X8	Y8	Z8	X9	Y9	Z9	X10	Y10	Z10	X11	Y11	Z11	X12	Y12	Z12	X13	Y13	Z13	X14	Y14	Z14	X15	Y15	Z15	X16	Y16	Z16	X17	Y17	Z17	X18	Y18	Z18	
117	0.975	-133.687	-54.1915	-7.04711	-151.461	-81.1545	-24.65	-162.917	-88.6515	-39.1726	-178.882	-90.4991	-57.0574	-134.233	-68.1721	-70.9265	-153.421	-87.4078	-65.8761	-160.387	-80.2156	-37.9337	-149.472	-55.5204	-77.2946	-171.279	-75.242	-71.6333	-174.728	-70.2254	-40.9333	-163.692	-48.706	-72.4304	-178.166	-66.9783	-63.5346	-178.985	-64.4426	-33.5786	-178.482	-32.2783	-65.1866	-187.598	-53.5001	-53.3415	-175.895	-56.576	-29.1115	-142.95	-13.4752	-44.4303	-141.229	-3.974	-13.7257	-124.997	-23.0582	-25.6748	
118	0.983333	-134.671	-51.4861	-10.1417	-151.238	-80.4022	-22.8194	-164.313	-89.536	-37.3577	-183.046	-98.6873	-50.697	-135.313	-73.2515	-67.7461	-155.263	-91.5251	-57.1772	-158.051	-79.2654	-32.0649	-152.324	-62.4206	-74.0585	-169.918	-84.3817	-65.4066	-171.407	-74.0978	-33.5104	-173.449	-55.3664	-70.961	-183.763	-72.4411	-55.9505	-177.778	-66.0119	-25.7646	-183.707	-40.5825	-61.6961	-190.754	-59.9737	-48.371	-175.037	-59.2206	-24.9951	-150.379	-12.5703	-43.9768	-147.537	-1.93132	-17.5805	-126.425	-23.9407	-23.8423	
119	0.991667	-135.228	-50.0196	-10.5429	-148.523	-82.5232	-18.2351	-163.905	-95.6655	-31.5943	-184.693	-100.165	-42.9339	-137.346	-73.9285	-62.791	-154.366	-94.1744	-50.7888	-153.936	-76.2401	-24.7027	-160.045	-67.9353	-71.9039	-173.506	-89.8952	-53.8702	-168.139	-74.6348	-24.8276	-176.886	-62.1665	-65.7679	-181.317	-80.2191	-45.5273	-176.647	-67.944	-21.3178	-188.732	-50.7313	-55.6455	-191.14	-66.4327	-37.0663	-172.623	-57.0304	-19.6225	-158.402	-16.7737	-47.3606	-156.138	-3.17203	-21.4096	-133.989	-19.3937	-27.5011	
120	1	-133.411	-47.4695	-7.43597	-147.301	-76.4666	-12.3466	-163.269	-93.5826	-23.7715	-180.663	-101.771	-31.3319	-145.038	-77.6998	-60.2478	-155.961	-93.1669	-42.7826	-151.063	-74.2322	-19.1283	-164.495	-69.0388	-65.604	-172.206	-93.1507	-46.3492	-168.686	-76.4308	-21.7451	-178.192	-64.3797	-58.6027	-182.399	-83.5093	-38.9507	-174.855	-65.8274	-13.7283	-191.468	-59.7903	-47.5012	-187.232	-71.6579	-26.8626	-176.418	-59.8719	-12.5367	-167.872	-17.5228	-41.7468	-164.229	-4.04752	-19.4386	-137.508	-22.0409	-31.2354	
121	1.00833	-134.355	-45.6901	-6.63021	-144.679	-75.7317	-6.7278	-158.497	-95.3356	-17.1797	-182.713	-105.849	-26.5356	-149.101	-78.2905	-54.5091	-155.844	-92.7048	-34.2944	-152.008	-65.0772	-18.0209	-167.857	-78.2927	-59.573	-169.175	-96.965	-40.9497	-168.658	-75.9506	-15.1964	-185.773	-70.4762	-50.949	-185.224	-86.0037	-28.0098	-175.855	-67.5214	-8.78205	-197.408	-62.3191	-41.4995	-191.829	-75.0361	-19.7146	-178.538	-58.3481	-6.11922	-173.18	-24.1779	-41.75	-170.787	-4.36534	-17.4983	-144.74	-18.5062	-30.0772	
122	1.01667	-139.672	-39.7078	-4.46685	-142.53	-74.2931	-5.73381	-153.264	-98.8529	-12.095	-175.715	-108.616	-19.2484	-148.183	-82.7162	-49.0627	-152.231	-93.564	-27.6257	-147.5	-67.2787	-14.0957	-167.664	-81.7185	-53.964	-167.337	-98.8534	-30.5155	-161.265	-73.4829	-10.1906	-185.851	-79.1972	-44.4376	-182.012	-90.1807	-19.4401	-175.247	-69.9829	-3.86992	-198.213	-73.1868	-33.0304	-189.276	-78.5679	-13.5642	-174.666	-58.8063	-4.75226	-180.994	-29.0564	-41.1148	-176.483	-5.83176	-19.6445	-148.878	-20.3355	-29.0291	
123	1.025	-137.024	-40.127	-3.8573	-138.948	-74.2727	-2.28686	-149.099	-95.2249	-7.59445	-166.977	-110.749	-9.64195	-142.594	-82.3336	-43.2901	-150.166	-91.7524	-17.4672	-146.308	-60.8263	-14.6872	-163.647	-86.0384	-47.0288	-166.927	-99.3579	-21.4233	-159.976	-72.6926	-5.76711	-180.461	-80.6789	-40.2228	-178.112	-91.5145	-13.1512	-171.299	-66.7558	-0.509671	-195.641	-73.7437	-30.362	-184.884	-79.2995	-7.73265	-177.306	-59.1781	2.88551	-183.289	-30.4664	-36.7504	-178.404	-11.0759	-21.6356	-156.258	-19.3374	-28.3577	
